<?xml version="1.0" encoding="UTF-8"?>
<svg width="512" height="512" version="1.1" viewBox="0 0 512 512" xmlns="http://www.w3.org/2000/svg"><g transform="translate(0 -540.36)"><rect y="540.36" width="512" height="512" rx="50" ry="50" fill="#fff"/><g transform="translate(-8.272 -6.1)"><rect x="76.772" y="814.96" width="175" height="175" rx="10" ry="10" fill="#29b6f6"/><rect x="76.772" y="614.96" width="375" height="175" rx="10" ry="10" fill="#2196f3"/><rect x="276.77" y="814.96" width="175" height="175" rx="10" ry="10" fill="#29b6f6"/><path d="m108.87 709.56c0 1.4359 0.47862 2.6058 1.489 3.5631 1.0104 0.95725 2.2868 1.3827 3.829 1.3827h8.9875c1.4359 0 2.659-0.47862 3.6695-1.4359 1.0104-0.95726 1.5422-2.1272 1.5422-3.5099 0-1.5422-0.47862-2.8186-1.489-3.7758-1.0104-0.95725-2.2336-1.489-3.6695-1.489h-9.0407c-1.5422 0-2.8186 0.47862-3.829 1.489-1.0104 0.90408-1.489 2.1804-1.489 3.7758zm9.413 32.866c0 5.1585 1.8613 9.6257 5.6372 13.402 3.7758 3.7758 8.1898 5.6372 13.348 5.6372h36.482c5.1585 0 9.5725-1.8613 13.242-5.584 3.6695-3.7226 5.5308-8.1898 5.5308-13.455 0-2.5527-0.37226-4.7331-1.1168-6.5412 4.414-2.8186 7.9239-6.5944 10.477-11.274 2.5527-4.6799 3.8822-9.7321 3.8822-15.103 0-4.3076-0.85089-8.4557-2.5527-12.391s-3.9886-7.3389-6.8071-10.158c-2.8186-2.8186-6.2222-5.1054-10.158-6.8071-3.9354-1.7018-8.0303-2.5527-12.338-2.5527-5.7967 0-11.168 1.4359-16.061 4.3076-4.8926 2.8718-8.7748 6.754-11.593 11.593-2.8186 4.8926-4.2013 10.211-4.2013 16.007v1.8082c-5.3181 3.0313-8.828 7.4453-10.53 13.242-4.0417 1.2763-7.2326 3.5099-9.6257 6.754s-3.6163 6.9667-3.6163 11.115zm8.2962-75.304c0 1.4891 0.47862 2.7122 1.3827 3.5631l8.5621 8.9875c2.4995 1.9145 4.999 1.9145 7.4985 0 1.0104-1.0104 1.4891-2.2336 1.4891-3.7226 0-1.4359-0.47863-2.659-1.4891-3.7226l-8.7748-8.7748c-1.1168-1.0104-2.3931-1.5422-3.7226-1.5422-1.4891 0-2.7122 0.47863-3.6163 1.4891s-1.3295 2.2336-1.3295 3.7226zm2.2336 75.304c0-2.2336 0.69136-4.1481 2.1272-5.7435 1.4359-1.5954 3.244-2.4995 5.4244-2.7122l3.2972-0.42546c0.69135 0 1.0636-0.42544 1.0636-1.2232l0.47862-2.9781c0.37227-3.0845 1.6486-5.6372 3.8822-7.658 2.2336-2.074 4.8394-3.0845 7.8707-3.0845 3.0845 0 5.7967 1.0104 8.0303 3.0845 2.2868 2.074 3.6163 4.6267 3.9886 7.658l0.42545 3.4567c0.31908 0.79772 0.74452 1.2232 1.2763 1.2232h7.0198c2.2868 0 4.2545 0.85089 5.9562 2.4995 1.7018 1.6486 2.4995 3.6163 2.4995 5.9562 0 2.3931-0.85088 4.414-2.4995 6.1158-1.6486 1.7018-3.6695 2.5527-5.9562 2.5527h-36.429c-2.3931 0-4.414-0.8509-6.0094-2.5527-1.6486-1.7018-2.4463-3.7758-2.4463-6.169zm23.506-33.982c0.37227-5.7967 2.6059-10.689 6.754-14.678 4.0949-3.9354 9.0939-5.9562 14.837-5.9562 5.9031 0 10.955 2.1272 15.103 6.3285 4.1481 4.2013 6.2222 9.3598 6.2222 15.369 0 3.7227-0.90408 7.1794-2.7122 10.37-1.8082 3.1908-4.2544 5.7435-7.3389 7.7112-3.1377-2.6058-6.754-3.8822-10.796-3.8822-1.5422-4.6799-4.3076-8.3494-8.1898-11.115-3.8822-2.7654-8.2962-4.1481-13.189-4.1481zm16.433-46.533c0 1.4359 0.5318 2.7122 1.5422 3.7226s2.2336 1.5422 3.6695 1.5422c1.4891 0 2.7122-0.5318 3.7227-1.5422 1.0104-1.0104 1.5422-2.2336 1.5422-3.7226v-12.444c0-1.3827-0.5318-2.5527-1.5422-3.5099-1.0104-0.95725-2.2336-1.4359-3.7227-1.4359-1.4359 0-2.659 0.47862-3.6695 1.4359-1.0104 0.95725-1.5422 2.1272-1.5422 3.5099zm33.61 80.994c0 1.4359 0.47862 2.659 1.4359 3.7226l8.7216 8.6153c2.2336 2.2336 4.7331 2.2336 7.4985 0 0.95724-0.90407 1.3827-2.074 1.3827-3.6163 0-1.4359-0.47863-2.6058-1.3827-3.5631l-8.9876-8.8812c-0.95724-0.90407-2.1804-1.3295-3.6163-1.3295-1.4891 0-2.659 0.47862-3.6163 1.4359s-1.4359 2.1804-1.4359 3.6163zm0-67.061c0 1.4891 0.47862 2.7654 1.4359 3.829 0.95725 0.95725 2.1804 1.4359 3.6163 1.4359s2.659-0.47862 3.6163-1.4359l8.9876-8.9875c0.95724-0.90407 1.3827-2.074 1.3827-3.5631 0-1.489-0.53181-2.7122-1.5422-3.6695s-2.2336-1.4891-3.7226-1.4891c-1.3827 0-2.6059 0.53181-3.6163 1.5422l-8.7216 8.6685c-0.95725 0.95724-1.4359 2.1804-1.4359 3.6695zm13.721 33.717c0 1.4359 0.47862 2.6058 1.489 3.5631 1.0104 0.95725 2.2868 1.3827 3.829 1.3827h8.9875c1.4359 0 2.659-0.47862 3.6695-1.4359 1.0104-0.95726 1.5422-2.1272 1.5422-3.5099 0-1.5422-0.47862-2.8186-1.489-3.7758-1.0104-0.95725-2.2336-1.489-3.6695-1.489h-8.9875c-1.5422 0-2.8186 0.47862-3.829 1.489-1.0104 0.90408-1.5422 2.1804-1.5422 3.7758z" fill="#fefefe"/></g></g></svg>
